<svg width="256" height="256" viewBox="0 0 256 256" fill="none" xmlns="http://www.w3.org/2000/svg">
  <defs>
    <linearGradient id="alt1Blue" x1="58" y1="34" x2="210" y2="224" gradientUnits="userSpaceOnUse">
      <stop stop-color="#007AFF"/>
      <stop offset="1" stop-color="#38BDF8"/>
    </linearGradient>
  </defs>
  <rect x="20" y="20" width="216" height="216" rx="56" fill="#FFFFFF"/>
  <rect x="24" y="24" width="208" height="208" rx="52" stroke="#E2E8F0" stroke-width="8"/>

  <path d="M72 66H124C156 66 178 86 178 114C178 142 156 162 124 162H101V190H72V66ZM121 138C140 138 149 130 149 115C149 100 139 92 121 92H101V138H121Z" fill="#0F172A"/>
  <path d="M122 110L165 67C171 61 180 61 186 67C192 73 192 82 186 88L143 131L122 110Z" fill="url(#alt1Blue)"/>
  <circle cx="169" cy="165" r="26" fill="url(#alt1Blue)"/>
</svg>
